<?xml version="1.0" encoding="UTF-8" standalone="no"?>
<svg
   xmlns:dc="http://purl.org/dc/elements/1.1/"
   xmlns:cc="http://creativecommons.org/ns#"
   xmlns:rdf="http://www.w3.org/1999/02/22-rdf-syntax-ns#"
   xmlns:svg="http://www.w3.org/2000/svg"
   xmlns="http://www.w3.org/2000/svg"
   xmlns:sodipodi="http://sodipodi.sourceforge.net/DTD/sodipodi-0.dtd"
   xmlns:inkscape="http://www.inkscape.org/namespaces/inkscape"
   width="650"
   height="270"
   id="svg2"
   version="1.1"
   inkscape:version="0.48.4 r9939"
   sodipodi:docname="sth-3-10.svg">
  <metadata
     id="metadata3384">
    <rdf:RDF>
      <cc:Work
         rdf:about="">
        <dc:format>image/svg+xml</dc:format>
        <dc:type
           rdf:resource="http://purl.org/dc/dcmitype/StillImage" />
      </cc:Work>
    </rdf:RDF>
  </metadata>
  <defs
     id="defs3382" />
  <sodipodi:namedview
     pagecolor="#ffffff"
     bordercolor="#666666"
     borderopacity="1"
     objecttolerance="10"
     gridtolerance="10"
     guidetolerance="10"
     inkscape:pageopacity="0"
     inkscape:pageshadow="2"
     inkscape:window-width="1326"
     inkscape:window-height="1029"
     id="namedview3380"
     showgrid="false"
     inkscape:zoom="1.5142963"
     inkscape:cx="331.30862"
     inkscape:cy="4.6994613"
     inkscape:window-x="1366"
     inkscape:window-y="19"
     inkscape:window-maximized="0"
     inkscape:current-layer="svg2"
     showguides="true"
     inkscape:guide-bbox="true" />
  <style
     type="text/css"
     id="style3362">
		.equipment {fill:#4d4d4d;stroke:#000000;stroke-opacity:1}
		.body { fill:#ffffff;stroke:#000000;stroke-opacity:1 }
		.arrow { fill:#ff0000;stroke:#000000;stroke-opacity:1 }
	</style>
  <path
     style="fill:#4d4d4d;stroke:#000000;stroke-width:1.22239256px;stroke-linecap:butt;stroke-linejoin:miter;stroke-opacity:1"
     d="m 45.103139,171.32055 242.398611,-1.22854 4.2433,6.75693 -0.53041,4.91412 -11.66909,11.05677 -23.33815,1.8428 4.7737,39.92723 -11.66907,0.61426 -3.71289,-39.31297 -153.289273,1.84281 -2.652064,37.47016 -12.729908,0 2.652064,-35.01312 -27.581456,-3.68557 -7.425777,-4.91413 z"
     id="path5471"
     inkscape:connector-curvature="0"
     sodipodi:nodetypes="cccccccccccccccc" />
  <path
     sodipodi:type="arc"
     style="fill:#ffffff;fill-opacity:1;stroke:#000000;stroke-width:1;stroke-linecap:round;stroke-linejoin:round;stroke-miterlimit:4;stroke-opacity:1;stroke-dasharray:none"
     id="path6215"
     sodipodi:cx="42.95977"
     sodipodi:cy="143.92241"
     sodipodi:rx="16.810345"
     sodipodi:ry="16.810345"
     d="m 59.706369,142.45984 a 16.810345,16.810345 0 1 1 -0.0078,-0.0862"
     sodipodi:start="6.1960712"
     sodipodi:end="12.474106"
     sodipodi:open="true"
     transform="matrix(1.0783379,0,0,1.2069297,5.2864726,-79.136506)" />
  <path
     style="fill:#ffffff;stroke:#000000;stroke-width:1.14082336px;stroke-linecap:butt;stroke-linejoin:miter;stroke-opacity:1"
     d="m 191.50193,131.96314 -0.71212,31.0839 2.49238,7.17322 51.6276,0.79702 6.0529,0 6.765,-0.79703 6.76499,-1.19553 -7.4771,-11.15833 -3.56053,-2.78958 -38.09761,-2.39107 -6.0529,-23.11368 z"
     id="path6219"
     inkscape:connector-curvature="0"
     sodipodi:nodetypes="cccccccccccc" />
  <path
     style="fill:#ffffff;stroke:#000000;stroke-width:1.14082336px;stroke-linecap:butt;stroke-linejoin:miter;stroke-opacity:1"
     d="m 72.224337,170.22026 0,-84.48449 2.84842,-5.180661 123.550213,7.173217 16.37842,18.730044 4.98472,47.4229 29.55237,65.35593 -0.35605,16.73749 -26.70394,0.79702 -2.13632,-8.76725 14.24211,-4.78215 -29.90842,-54.19759 -8.54524,-12.75238 -11.39369,-31.88094 -11.39369,-9.16576 -81.536018,-8.36874 -1.424204,10.75981 -0.356057,55.79164 z"
     id="path6217"
     inkscape:connector-curvature="0"
     sodipodi:nodetypes="ccccccccccccccccccc" />
  <path
     style="fill:#ffffff;stroke:#000000;stroke-width:1.14082336px;stroke-linecap:butt;stroke-linejoin:miter;stroke-opacity:1"
     d="m 76.496969,82.946181 7.477098,-5.579165 8.189211,3.985125 3.560521,3.586609 -2.492362,87.67257 -4.272634,5.57917 -5.340781,3.5866 -3.916577,-1.59404 -3.204476,-5.97768 z"
     id="path6221"
     inkscape:connector-curvature="0"
     sodipodi:nodetypes="cccccccccc" />
  <path
     style="fill:#4d4d4d;stroke:#000000;stroke-width:1.22239256px;stroke-linecap:butt;stroke-linejoin:miter;stroke-opacity:1"
     d="m 384.80542,174.06078 242.3986,-1.22853 4.24331,6.75692 -0.53042,4.91413 -11.66908,11.05676 -23.33815,1.8428 4.7737,39.92724 -11.66907,0.61426 -3.71289,-39.31297 -153.28927,1.84281 -2.65207,37.47016 -12.7299,0 2.65206,-35.01312 -27.58146,-3.68558 -7.42578,-4.91412 z"
     id="path5471-1"
     inkscape:connector-curvature="0"
     sodipodi:nodetypes="cccccccccccccccc" />
  <path
     sodipodi:type="arc"
     style="fill:#ffffff;fill-opacity:1;stroke:#000000;stroke-width:1;stroke-linecap:round;stroke-linejoin:round;stroke-miterlimit:4;stroke-opacity:1;stroke-dasharray:none"
     id="path6215-3"
     sodipodi:cx="42.95977"
     sodipodi:cy="143.92241"
     sodipodi:rx="16.810345"
     sodipodi:ry="16.810345"
     d="m 59.706369,142.45984 a 16.810345,16.810345 0 1 1 -0.0078,-0.0862"
     sodipodi:start="6.1960712"
     sodipodi:end="12.474106"
     sodipodi:open="true"
     transform="matrix(1.0783379,0,0,1.2069297,344.98875,-76.396265)" />
  <path
     style="fill:#ffffff;stroke:#000000;stroke-width:1.14082336px;stroke-linecap:butt;stroke-linejoin:miter;stroke-opacity:1"
     d="m 531.2042,134.70337 -0.71211,31.08391 2.49237,7.17322 51.62761,0.79702 6.05289,0 6.76501,-0.79703 6.76499,-1.19553 -7.4771,-11.15833 -3.56053,-2.78959 -38.09762,-2.39106 -6.05289,-23.11368 z"
     id="path6219-4"
     inkscape:connector-curvature="0"
     sodipodi:nodetypes="cccccccccccc" />
  <path
     style="fill:#ffffff;stroke:#000000;stroke-width:1.14082336px;stroke-linecap:butt;stroke-linejoin:miter;stroke-opacity:1"
     d="m 411.92662,172.9605 0,-84.484493 2.84842,-5.180661 123.55021,7.173218 16.37842,18.730046 4.98472,47.4229 29.55237,65.35593 -0.35606,16.73749 -26.70394,0.79702 -2.13631,-8.76726 14.2421,-4.78214 -29.90841,-54.19759 -8.54525,-12.75238 -11.39368,-31.88094 -11.39369,-9.16576 -81.53602,-8.36874 -1.4242,10.75981 -0.35606,55.79164 z"
     id="path6217-7"
     inkscape:connector-curvature="0"
     sodipodi:nodetypes="ccccccccccccccccccc" />
  <path
     style="fill:#ffffff;stroke:#000000;stroke-width:1.14082336px;stroke-linecap:butt;stroke-linejoin:miter;stroke-opacity:1"
     d="m 416.52709,85.337254 35.96129,-27.89582 5.3408,-1.992554 11.39367,0.398512 2.13632,4.782146 1.78026,3.985112 4.62868,39.45266 -3.91658,3.18809 -7.12104,0.79702 -3.20448,-6.7747 -1.06816,-26.700276 -2.84841,-1.195536 -23.85552,23.113676 -5.69684,6.376186 -9.96947,-0.39852 -6.765,-7.173202 z"
     id="path6253"
     inkscape:connector-curvature="0" />
  <path
     style="fill:#333333;stroke:#000000;stroke-width:1.14082336px;stroke-linecap:butt;stroke-linejoin:miter;stroke-opacity:1"
     d="m 446.79155,91.713439 0,27.895831 18.87077,0 10e-6,-11.15833 13.17394,0 0.35604,11.55685 18.15868,0 10e-6,-28.294339 -18.51473,0 0,10.361299 -13.53,0.39852 -0.35604,-10.759819 z"
     id="path6255"
     inkscape:connector-curvature="0"
     sodipodi:nodetypes="ccccccccccccc" />
  <path
     style="fill:#333333;stroke:#000000;stroke-width:1.14082336px;stroke-linecap:butt;stroke-linejoin:miter;stroke-opacity:1"
     d="m 60.474599,163.24631 0,27.89582 18.870778,0 1.1e-5,-11.15833 13.173936,0 0.356045,11.55685 18.158681,0 1e-5,-28.29433 -18.514736,0 0,10.3613 -13.529992,0.39851 -0.356046,-10.75981 z"
     id="path6255-0"
     inkscape:connector-curvature="0"
     sodipodi:nodetypes="ccccccccccccc" />
</svg>
