<?xml version="1.0" encoding="UTF-8" standalone="no"?>
<svg
   xmlns:dc="http://purl.org/dc/elements/1.1/"
   xmlns:cc="http://creativecommons.org/ns#"
   xmlns:rdf="http://www.w3.org/1999/02/22-rdf-syntax-ns#"
   xmlns:svg="http://www.w3.org/2000/svg"
   xmlns="http://www.w3.org/2000/svg"
   xmlns:sodipodi="http://sodipodi.sourceforge.net/DTD/sodipodi-0.dtd"
   xmlns:inkscape="http://www.inkscape.org/namespaces/inkscape"
   width="650"
   height="270"
   id="svg2"
   version="1.1"
   inkscape:version="0.48.4 r9939"
   sodipodi:docname="sth-2-4.svg">
  <metadata
     id="metadata3384">
    <rdf:RDF>
      <cc:Work
         rdf:about="">
        <dc:format>image/svg+xml</dc:format>
        <dc:type
           rdf:resource="http://purl.org/dc/dcmitype/StillImage" />
      </cc:Work>
    </rdf:RDF>
  </metadata>
  <defs
     id="defs3382" />
  <sodipodi:namedview
     pagecolor="#ffffff"
     bordercolor="#666666"
     borderopacity="1"
     objecttolerance="10"
     gridtolerance="10"
     guidetolerance="10"
     inkscape:pageopacity="0"
     inkscape:pageshadow="2"
     inkscape:window-width="1326"
     inkscape:window-height="1029"
     id="namedview3380"
     showgrid="false"
     inkscape:zoom="1.0707692"
     inkscape:cx="412.5002"
     inkscape:cy="172.08176"
     inkscape:window-x="1366"
     inkscape:window-y="19"
     inkscape:window-maximized="0"
     inkscape:current-layer="svg2" />
  <style
     type="text/css"
     id="style3362">
		.equipment {fill:#4d4d4d;stroke:#000000;stroke-opacity:1}
		.body { fill:#ffffff;stroke:#000000;stroke-opacity:1 }
		.arrow { fill:#ff0000;stroke:#000000;stroke-opacity:1 }
	</style>
  <path
     style="fill:#4d4d4d;stroke:#000000;stroke-width:1.0715003px;stroke-linecap:butt;stroke-linejoin:miter;stroke-opacity:1"
     d="m 30.577787,159.612 224.789093,-1.0179 3.93504,5.59844 -0.49188,4.07159 -10.82136,9.16107 -21.64271,1.52685 4.42691,33.08166 -10.82135,0.50894 -3.44316,-32.57271 -142.153278,1.52686 -2.459399,31.04585 -11.805116,0 2.459399,-29.01007 -25.577752,-3.05368 -6.886317,-4.07159 z"
     id="path5471"
     inkscape:connector-curvature="0"
     sodipodi:nodetypes="cccccccccccccccc" />
  <path
     style="fill:#ffffff;stroke:#000000;stroke-width:1.0715003px;stroke-linecap:butt;stroke-linejoin:miter;stroke-opacity:1"
     d="m 33.037186,211.01581 -20.167073,0.50894 0.49188,-9.16107 21.150832,-6.61633 12.788877,-62.60068 18.691432,-10.68792 13.280756,2.54476 16.723915,5.59842 19.675195,13.74162 32.46406,-18.83109 40.82604,-8.14319 32.95596,6.10739 10.57541,10.17897 -1e-5,15.26846 -10.08353,12.72371 -52.13926,-8.65213 -32.46408,2.0358 -18.19955,8.65212 -18.19956,0 -24.593989,-14.7595 -11.805116,-5.59843 -5.410679,12.21476 -12.788875,55.47539 z"
     id="path5475"
     inkscape:connector-curvature="0"
     sodipodi:nodetypes="cccccccccccccccccccccccc" />
  <path
     sodipodi:type="arc"
     style="fill:#ffffff;fill-opacity:1;stroke:#000000;stroke-width:1;stroke-linecap:round;stroke-linejoin:round;stroke-miterlimit:4;stroke-opacity:1;stroke-dasharray:none"
     id="path5479"
     sodipodi:cx="240.48132"
     sodipodi:cy="154.1954"
     sodipodi:rx="18.211208"
     sodipodi:ry="18.211206"
     d="m 258.62347,152.61096 a 18.211208,18.211206 0 1 1 -0.008,-0.0934"
     sodipodi:start="6.1960712"
     sodipodi:end="12.474106"
     sodipodi:open="true"
     transform="matrix(1.0533796,0,0,1.0899328,-0.41064231,-27.536198)" />
  <path
     style="fill:#4d4d4d;stroke:#000000;stroke-width:1.0715003px;stroke-linecap:butt;stroke-linejoin:miter;stroke-opacity:1"
     d="m 376.77258,166.2605 224.7891,-1.0179 3.93504,5.59844 -0.49188,4.07159 -10.82136,9.16107 -21.64271,1.52685 4.42691,33.08166 -10.82135,0.50894 -3.44316,-32.57271 -142.15328,1.52686 -2.4594,31.04585 -11.80512,0 2.4594,-29.01007 -25.57775,-3.05368 -6.88632,-4.07159 z"
     id="path5471-5"
     inkscape:connector-curvature="0"
     sodipodi:nodetypes="cccccccccccccccc" />
  <path
     style="fill:#ffffff;stroke:#000000;stroke-width:1.0715003px;stroke-linecap:butt;stroke-linejoin:miter;stroke-opacity:1"
     d="m 379.23198,217.66431 -20.16707,0.50894 0.49188,-9.16107 21.15083,-6.61633 12.78888,-62.60068 18.69143,-10.68792 13.28075,2.54476 16.72392,5.59842 19.6752,13.74162 32.46406,-18.83109 40.82604,-8.14319 32.95596,6.10739 10.57541,10.17897 -10e-6,15.26846 -10.08353,12.72371 -52.13926,-8.65213 -32.46408,2.0358 -18.19955,8.65212 -18.19957,0 -24.59399,-14.7595 -11.80511,-5.59843 -5.41068,12.21476 -12.78888,55.47539 z"
     id="path5475-7"
     inkscape:connector-curvature="0"
     sodipodi:nodetypes="cccccccccccccccccccccccc" />
  <path
     sodipodi:type="arc"
     style="fill:#ffffff;fill-opacity:1;stroke:#000000;stroke-width:1;stroke-linecap:round;stroke-linejoin:round;stroke-miterlimit:4;stroke-opacity:1;stroke-dasharray:none"
     id="path5479-9"
     sodipodi:cx="240.48132"
     sodipodi:cy="154.1954"
     sodipodi:rx="18.211208"
     sodipodi:ry="18.211206"
     d="m 258.62347,152.61096 a 18.211208,18.211206 0 1 1 -0.008,-0.0934"
     sodipodi:start="6.1960712"
     sodipodi:end="12.474106"
     sodipodi:open="true"
     transform="matrix(1.0533796,0,0,1.0899328,345.78415,-20.887697)" />
  <path
     style="fill:#ffffff;stroke:#000000;stroke-width:1px;stroke-linecap:butt;stroke-linejoin:miter;stroke-opacity:1"
     d="m 200.76804,123.45792 9.24522,-3.96223 8.58484,4.6226 1.32075,40.94311 -3.30187,8.58485 -11.22633,2.64149 -6.60373,-1.98112 z"
     id="path5505"
     inkscape:connector-curvature="0" />
  <path
     sodipodi:type="arc"
     style="fill:#4d4d4d;fill-opacity:1;stroke:#000000;stroke-width:1;stroke-linecap:round;stroke-linejoin:round;stroke-miterlimit:4;stroke-opacity:1;stroke-dasharray:none"
     id="path6021"
     sodipodi:cx="180.61194"
     sodipodi:cy="82.123955"
     sodipodi:rx="34.339382"
     sodipodi:ry="53.820381"
     d="m 214.88768,85.39905 a 34.339382,53.820381 0 1 1 0.001,-0.03538"
     sodipodi:start="0.060889943"
     sodipodi:end="6.3434167"
     sodipodi:open="true"
     transform="matrix(1.0029573,0,0,0.63316219,29.350934,62.112523)" />
  <path
     style="fill:#ffffff;stroke:#000000;stroke-width:1px;stroke-linecap:butt;stroke-linejoin:miter;stroke-opacity:1"
     d="m 551.0474,108.37607 9.24522,-3.96223 8.58484,4.6226 1.32075,40.94311 -3.30187,8.58485 -11.22633,2.64149 -6.60373,-1.98112 z"
     id="path5505-9"
     inkscape:connector-curvature="0" />
  <path
     sodipodi:type="arc"
     style="fill:#4d4d4d;fill-opacity:1;stroke:#000000;stroke-width:1;stroke-linecap:round;stroke-linejoin:round;stroke-miterlimit:4;stroke-opacity:1;stroke-dasharray:none"
     id="path6021-4"
     sodipodi:cx="180.61194"
     sodipodi:cy="82.123955"
     sodipodi:rx="34.339382"
     sodipodi:ry="53.820381"
     d="m 214.88768,85.39905 a 34.339382,53.820381 0 1 1 0.001,-0.03538"
     sodipodi:start="0.060889943"
     sodipodi:end="6.3434167"
     sodipodi:open="true"
     transform="matrix(1.0029573,0,0,0.63316219,380.09725,39.559405)" />
</svg>
