<?xml version="1.0" encoding="UTF-8" standalone="no"?>
<svg
   xmlns:dc="http://purl.org/dc/elements/1.1/"
   xmlns:cc="http://creativecommons.org/ns#"
   xmlns:rdf="http://www.w3.org/1999/02/22-rdf-syntax-ns#"
   xmlns:svg="http://www.w3.org/2000/svg"
   xmlns="http://www.w3.org/2000/svg"
   xmlns:sodipodi="http://sodipodi.sourceforge.net/DTD/sodipodi-0.dtd"
   xmlns:inkscape="http://www.inkscape.org/namespaces/inkscape"
   width="650"
   height="270"
   id="svg2"
   version="1.1"
   inkscape:version="0.48.4 r9939"
   sodipodi:docname="sth-7-14.svg">
  <metadata
     id="metadata3073">
    <rdf:RDF>
      <cc:Work
         rdf:about="">
        <dc:format>image/svg+xml</dc:format>
        <dc:type
           rdf:resource="http://purl.org/dc/dcmitype/StillImage" />
        <dc:title></dc:title>
      </cc:Work>
    </rdf:RDF>
  </metadata>
  <defs
     id="defs3071" />
  <sodipodi:namedview
     pagecolor="#ffffff"
     bordercolor="#666666"
     borderopacity="1"
     objecttolerance="10"
     gridtolerance="10"
     guidetolerance="10"
     inkscape:pageopacity="0"
     inkscape:pageshadow="2"
     inkscape:window-width="1177"
     inkscape:window-height="798"
     id="namedview3069"
     showgrid="false"
     inkscape:zoom="1.3830769"
     inkscape:cx="267.40812"
     inkscape:cy="112.3613"
     inkscape:window-x="1596"
     inkscape:window-y="151"
     inkscape:window-maximized="0"
     inkscape:current-layer="svg2" />
  <style
     type="text/css"
     id="style3053">
		.equipment {fill:#4d4d4d;stroke:#000000;stroke-opacity:1}
		.body { fill:#ffffff;stroke:#000000;stroke-opacity:1 }
		.arrow { fill:#ff0000;stroke:#000000;stroke-opacity:1 }
	</style>
  <path
     d="m 256.54538,51.60264 8.08123,8.08122 -23.73859,66.165 -11.61675,13.13198 14.14213,25.75889 -8.58629,1.51523 -11.11168,-19.69798 -12.62691,16.16244 5.05076,7.57615 27.7792,-5.55584 1.01015,5.55584 -6.56599,15.65736 -31.31473,13.637 -32.32488,-15.15223 -7.57614,-6.56599 -25.25381,-13.63706 1.51523,-5.05076 7.57615,-1.51523 12.6269,-3.53553 18.68781,1.51523 38.3858,-40.40611 18.68782,-41.41625 5.55584,-13.63706 z"
     id="path3907"
     class="equipment"
     inkscape:connector-curvature="0"
     style="fill:#4d4d4d;stroke:#000000;stroke-opacity:1" />
  <path
     d="m 624.4622,52.81698 8.08123,8.08122 -23.73859,66.165 -11.61675,13.13198 14.14213,25.75889 -8.58629,1.51523 -11.11168,-19.69798 -12.62691,16.16244 5.05076,7.57615 27.7792,-5.55584 1.01015,5.55584 -6.56599,15.65736 -31.31473,13.63707 -32.32488,-15.1523 -7.57615,-6.56599 -25.25381,-13.63706 1.51523,-5.05076 7.57614,-1.51523 12.62691,-3.53553 18.68782,1.51523 38.3858,-40.40611 18.68782,-41.41625 5.55584,-13.63706 z"
     id="path3907-8"
     class="equipment"
     inkscape:connector-curvature="0"
     style="fill:#4d4d4d;stroke:#000000;stroke-opacity:1" />
  <path
     d="m 252.50477,46.55188 a 15.15229,15.15229 0 0 1 -30.30458,0 15.15229,15.15229 0 1 1 30.30458,0 z"
     id="path3927"
     class="body"
     inkscape:connector-curvature="0"
     style="fill:#ffffff;stroke:#000000;stroke-opacity:1" />
  <path
     d="m 621.68429,48.01875 a 15.15229,15.15229 0 0 1 -30.30458,0 15.15229,15.15229 0 1 1 30.30458,0 z"
     id="path3927-9"
     class="body"
     inkscape:connector-curvature="0"
     style="fill:#ffffff;stroke:#000000;stroke-opacity:1" />
  <path
     d="m 217.65451,72.31077 6.56599,-4.04061 4.54569,-3.03046 5.55584,2.52538 4.54569,3.53554 0.50507,5.05076 -0.50507,7.07107 -41.92134,67.68022 -14.64721,-9.09137 z"
     id="path3961"
     class="body"
     inkscape:connector-curvature="0"
     style="fill:#ffffff;stroke:#000000;stroke-opacity:1" />
  <path
     d="m 582.54088,70.74719 6.56599,-4.04061 4.54569,-3.03046 5.55584,2.52538 4.54569,3.53554 0.50507,5.05076 -0.50507,7.07107 -41.92134,67.68022 -14.64721,-9.09137 z"
     id="path3961-9"
     class="body"
     inkscape:connector-curvature="0"
     style="fill:#ffffff;stroke:#000000;stroke-opacity:1" />
  <path
     d="m 167.65197,85.44275 3.03045,2.52539 3.03046,3.53553 20.20305,52.52793 -19.69798,11.11168 -17.17258,-47.47717 -3.53553,-1.51523 -4.04061,1.01015 -42.42641,11.61676 -7.071069,-2.02031 -3.030457,-3.03045 -2.525382,-6.06092 0.505077,-5.55584 8.081221,-5.05076 58.58884,-13.13199 z"
     id="path4030"
     class="body"
     inkscape:connector-curvature="0"
     style="fill:#ffffff;stroke:#000000;stroke-opacity:1" />
  <path
     d="m 207.55298,124.08109 9.09138,-41.92133 3.53553,-5.55584 5.55584,-3.53553 5.55584,1.01015 3.53553,4.04061 1.01016,5.05077 -12.62691,47.47717 -31.31473,33.33503 -6.56599,2.52538 -5.05076,-4.04061 -4.04062,-4.54569 0,-4.54568 z"
     id="path3963"
     class="body"
     inkscape:connector-curvature="0"
     style="fill:#ffffff;stroke:#000000;stroke-opacity:1" />
  <path
     d="m 408.5421,114.18375 -4.54569,2.52538 -5.05076,6.06092 0,6.56599 2.02031,4.54569 5.05076,-0.50508 59.599,-1.51523 70.71068,23.23351 8.08122,2.52538 7.57614,-11.11168 1.51523,-4.04061 -75.76144,-26.76904 -7.57614,-3.03046 -4.54569,0 -5.55584,0.50508 z"
     id="path4059"
     class="body"
     inkscape:connector-curvature="0"
     style="fill:#ffffff;stroke:#000000;stroke-opacity:1" />
  <path
     d="m 574.71219,122.01243 9.09138,-41.92133 3.53553,-5.55584 5.55584,-3.53553 5.55584,1.01015 3.53553,4.04061 1.01016,5.05077 -12.62691,47.47717 -31.31473,33.33503 -6.56599,2.52538 -5.05076,-4.04061 -4.04062,-4.54569 0,-4.54568 z"
     id="path3963-2"
     class="body"
     inkscape:connector-curvature="0"
     style="fill:#ffffff;stroke:#000000;stroke-opacity:1" />
  <rect
     style="fill:#4d4d4d;fill-opacity:1;stroke:#000000;stroke-width:1;stroke-linecap:round;stroke-linejoin:round;stroke-miterlimit:4;stroke-opacity:1;stroke-dasharray:none"
     id="rect3127"
     width="10.845384"
     height="83.147942"
     x="81.701897"
     y="74.060066" />
  <rect
     style="fill:#4d4d4d;fill-opacity:1;stroke:#000000;stroke-width:1;stroke-linecap:round;stroke-linejoin:round;stroke-miterlimit:4;stroke-opacity:1;stroke-dasharray:none"
     id="rect3127-4"
     width="10.845384"
     height="83.147942"
     x="387.18018"
     y="84.543938" />
  <rect
     style="fill:#4d4d4d;fill-opacity:1;stroke:#000000;stroke-width:1.10119212;stroke-linecap:round;stroke-linejoin:round;stroke-miterlimit:4;stroke-opacity:1;stroke-dasharray:none"
     id="rect3147"
     width="227.65187"
     height="15.80537"
     x="24.633465"
     y="199.91711" />
  <rect
     style="fill:#4d4d4d;fill-opacity:1;stroke:#000000;stroke-width:1.11458933;stroke-linecap:round;stroke-linejoin:round;stroke-miterlimit:4;stroke-opacity:1;stroke-dasharray:none"
     id="rect3147-7"
     width="233.42268"
     height="15.791973"
     x="362.29312"
     y="199.20079" />
  <path
     style="fill:#4d4d4d;stroke:#000000;stroke-width:1px;stroke-linecap:butt;stroke-linejoin:miter;stroke-opacity:1"
     d="m 80.978865,95.750834 -46.996663,23.136816 18.07564,84.594 15.183537,-2.8921 -20.244716,-75.19466 33.982202,-16.6296 z"
     id="path3167"
     inkscape:connector-curvature="0"
     sodipodi:nodetypes="ccccccc" />
  <path
     style="fill:#4d4d4d;stroke:#000000;stroke-width:1px;stroke-linecap:butt;stroke-linejoin:miter;stroke-opacity:1"
     d="m 391.51835,104.78865 -46.99666,23.13682 18.07564,84.594 15.18353,-2.8921 -20.24471,-75.19466 33.9822,-16.6296 z"
     id="path3167-7"
     inkscape:connector-curvature="0"
     sodipodi:nodetypes="ccccccc" />
</svg>
