<?xml version="1.0" encoding="UTF-8" standalone="no"?>
<svg
   xmlns:dc="http://purl.org/dc/elements/1.1/"
   xmlns:cc="http://creativecommons.org/ns#"
   xmlns:rdf="http://www.w3.org/1999/02/22-rdf-syntax-ns#"
   xmlns:svg="http://www.w3.org/2000/svg"
   xmlns="http://www.w3.org/2000/svg"
   xmlns:sodipodi="http://sodipodi.sourceforge.net/DTD/sodipodi-0.dtd"
   xmlns:inkscape="http://www.inkscape.org/namespaces/inkscape"
   width="650"
   height="270"
   id="svg2"
   version="1.1"
   inkscape:version="0.48.4 r9939"
   sodipodi:docname="sth-2-15.svg">
  <metadata
     id="metadata3384">
    <rdf:RDF>
      <cc:Work
         rdf:about="">
        <dc:format>image/svg+xml</dc:format>
        <dc:type
           rdf:resource="http://purl.org/dc/dcmitype/StillImage" />
      </cc:Work>
    </rdf:RDF>
  </metadata>
  <defs
     id="defs3382" />
  <sodipodi:namedview
     pagecolor="#ffffff"
     bordercolor="#666666"
     borderopacity="1"
     objecttolerance="10"
     gridtolerance="10"
     guidetolerance="10"
     inkscape:pageopacity="0"
     inkscape:pageshadow="2"
     inkscape:window-width="1326"
     inkscape:window-height="1029"
     id="namedview3380"
     showgrid="false"
     inkscape:zoom="1.0707692"
     inkscape:cx="324.44711"
     inkscape:cy="88.182013"
     inkscape:window-x="1366"
     inkscape:window-y="19"
     inkscape:window-maximized="0"
     inkscape:current-layer="svg2" />
  <style
     type="text/css"
     id="style3362">
		.equipment {fill:#4d4d4d;stroke:#000000;stroke-opacity:1}
		.body { fill:#ffffff;stroke:#000000;stroke-opacity:1 }
		.arrow { fill:#ff0000;stroke:#000000;stroke-opacity:1 }
	</style>
  <path
     sodipodi:type="arc"
     style="fill:#ffffff;fill-opacity:1;stroke:#000000;stroke-width:1;stroke-linecap:round;stroke-linejoin:round;stroke-miterlimit:4;stroke-opacity:1;stroke-dasharray:none"
     id="path4059"
     sodipodi:cx="56.968391"
     sodipodi:cy="54.267235"
     sodipodi:rx="17.744253"
     sodipodi:ry="16.810345"
     d="m 74.645358,52.804668 a 17.744253,16.810345 0 1 1 -0.0082,-0.08623"
     sodipodi:start="6.1960712"
     sodipodi:end="12.474106"
     sodipodi:open="true"
     transform="matrix(1.1361897,0,0,1.1686484,110.60218,-31.549152)" />
  <path
     style="fill:none;stroke:#000000;stroke-width:1.15230465px;stroke-linecap:butt;stroke-linejoin:miter;stroke-opacity:1"
     d="m 151.45441,62.42965 6.36658,-5.45705 16.97754,-3.819936 18.5692,1.637115 9.54987,7.639871 -2.12221,89.49564 5.83606,105.32108 -9.01933,3.81994 -9.01933,-0.54569 -6.89713,-102.04687 -7.95822,0 -5.3055,100.40976 -9.54984,1.63711 -9.01934,-0.54572 6.89713,-110.23243 z"
     id="path4061"
     inkscape:connector-curvature="0"
     sodipodi:nodetypes="cccccccccccccccc" />
  <path
     sodipodi:type="arc"
     style="fill:#ffffff;fill-opacity:1;stroke:#000000;stroke-width:1;stroke-linecap:round;stroke-linejoin:round;stroke-miterlimit:4;stroke-opacity:1;stroke-dasharray:none"
     id="path4059-2"
     sodipodi:cx="56.968391"
     sodipodi:cy="54.267235"
     sodipodi:rx="17.744253"
     sodipodi:ry="16.810345"
     d="m 74.645358,52.804668 a 17.744253,16.810345 0 1 1 -0.0082,-0.08623"
     sodipodi:start="6.1960712"
     sodipodi:end="12.474106"
     sodipodi:open="true"
     transform="matrix(1.1361897,0,0,1.1686484,403.73016,-31.002867)" />
  <path
     style="fill:none;stroke:#000000;stroke-width:1.15230465px;stroke-linecap:butt;stroke-linejoin:miter;stroke-opacity:1"
     d="m 444.58237,62.975933 6.36659,-5.45705 16.97754,-3.819936 18.5692,1.637117 9.54988,7.639869 -2.12221,89.495637 5.83604,105.32109 -9.01933,3.81993 -9.01932,-0.54569 -6.89712,-102.04686 -7.95823,0 -5.30549,100.40975 -9.54987,1.63711 -9.01931,-0.54571 6.89713,-110.23244 z"
     id="path4061-6"
     inkscape:connector-curvature="0"
     sodipodi:nodetypes="cccccccccccccccc" />
  <path
     style="fill:#ffffff;stroke:#000000;stroke-width:1.04683566px;stroke-linecap:butt;stroke-linejoin:miter;stroke-opacity:1"
     d="m 194.68236,66.117723 7.43397,8.466232 11.83763,-2.943612 14.85765,-11.262502 11.18819,0.557094 19.73116,16.681786 10.45733,-3.165575 -1.39729,-8.534192 -27.29228,-18.292973 -10.8355,-2.70276 -29.84758,12.142156 z"
     id="path4323"
     inkscape:connector-curvature="0"
     sodipodi:nodetypes="cccccccccccc" />
  <path
     style="fill:#ffffff;stroke:#000000;stroke-width:1.04139483px;stroke-linecap:butt;stroke-linejoin:miter;stroke-opacity:1"
     d="m 163.91124,70.746243 -7.35569,8.467629 -11.71297,-2.944101 -14.14411,-12.713532 -8.62872,0.557026 -22.522107,18.133867 -10.347207,-3.166098 1.382578,-8.535593 28.072146,-19.26234 13.16303,-3.186263 26.02435,13.593569 z"
     id="path4323-4"
     inkscape:connector-curvature="0"
     sodipodi:nodetypes="cccccccccccc" />
  <path
     style="fill:none;stroke:#000000;stroke-width:1.04683566px;stroke-linecap:butt;stroke-linejoin:miter;stroke-opacity:1"
     d="M 89.462611,73.626914 77.592778,14.200839 77.098202,13.7177 l 0,0.966277 0,0.483139 -0.494576,0.483139"
     id="path5111"
     inkscape:connector-curvature="0" />
  <path
     style="fill:none;stroke:#000000;stroke-width:1.04683566px;stroke-linecap:butt;stroke-linejoin:miter;stroke-opacity:1"
     d="M 268.99384,67.829248 285.31486,14.200839 285.80943,13.7177"
     id="path5113"
     inkscape:connector-curvature="0" />
  <path
     style="fill:none;stroke:#000000;stroke-width:1.04683566px;stroke-linecap:butt;stroke-linejoin:miter;stroke-opacity:1"
     d="M 460.39489,135.95183 457.92201,134.50241 398.07827,22.414199"
     id="path5115"
     inkscape:connector-curvature="0" />
  <path
     style="fill:none;stroke:#000000;stroke-width:1.04683566px;stroke-linecap:butt;stroke-linejoin:miter;stroke-opacity:1"
     d="M 482.65082,136.91811 543.97829,19.515366"
     id="path5117"
     inkscape:connector-curvature="0" />
  <path
     style="fill:#ffffff;stroke:#000000;stroke-width:1.09052956px;stroke-linecap:butt;stroke-linejoin:miter;stroke-opacity:1"
     d="m 438.7894,60.166976 -3.65371,7.259428 26.32909,70.437996 7.3505,-0.89791 3.85234,-5.46291 -21.39579,-70.819665 -4.30814,-2.980998 z"
     id="path5119"
     inkscape:connector-curvature="0"
     sodipodi:nodetypes="cccccccc" />
  <path
     style="fill:#ffffff;stroke:#000000;stroke-width:1.10542357px;stroke-linecap:butt;stroke-linejoin:miter;stroke-opacity:1"
     d="m 504.63052,60.281273 3.71215,7.302756 -27.44792,70.143191 -7.546,-0.98313 -3.92642,-5.50829 22.38216,-70.582021 4.44267,-2.931547 z"
     id="path5119-5"
     inkscape:connector-curvature="0"
     sodipodi:nodetypes="cccccccc" />
</svg>
